<svg xmlns="http://www.w3.org/2000/svg" width="256" height="80" viewBox="0 0 256 80">
  <defs>
    <linearGradient id="hedgetech-wordmark" x1="0" y1="0" x2="1" y2="1">
      <stop offset="0" stop-color="#0f766e" />
      <stop offset="1" stop-color="#34d399" />
    </linearGradient>
  </defs>
  <rect width="80" height="80" rx="24" fill="#102534" />
  <path d="M40 13c13.75 0 25 3.9 25 11.2v24.3c0 13.9-11.25 25.7-25 28.9-13.75-3.2-25-15-25-28.9V24.2C15 16.9 26.25 13 40 13z" fill="url(#hedgetech-wordmark)" />
  <path d="M51.5 25.6c0-2.8-1.3-4.1-4.6-4.8-2.3-.5-5-.7-7.9-.7s-5.6.2-7.9.7c-3.3.7-4.6 2-4.6 4.8v15.7c0 8 6.1 15.5 13.7 17.6 7.6-2.1 13.7-9.6 13.7-17.6V25.6z" fill="rgba(255,255,255,0.28)" />
  <path d="M46.4 32.9c0-1.9-1.2-2.8-3.9-3.3-1.8-.4-3.8-.6-6-.6s-4.2.2-6 .6c-2.7.5-3.9 1.4-3.9 3.3v8.2c0 5.2 3.7 9.9 8.5 11.2 4.8-1.3 8.5-6 8.5-11.2v-8.2z" fill="rgba(255,255,255,0.56)" />
  <text x="96" y="45" font-family="'Manrope','Segoe UI',sans-serif" font-weight="700" font-size="26" fill="#102534">Hedgetech</text>
  <text x="96" y="63" font-family="'Inter','Segoe UI',sans-serif" font-size="14" fill="#2f4a60">Marketplace</text>
</svg>
